<?xml version="1.0" standalone="no"?>
<!DOCTYPE svg PUBLIC "-//W3C//DTD SVG 20010904//EN"
 "http://www.w3.org/TR/2001/REC-SVG-20010904/DTD/svg10.dtd">
<svg version="1.0" xmlns="http://www.w3.org/2000/svg"
 width="1495.000000pt" height="448.000000pt" viewBox="0 0 1495.000000 448.000000"
 preserveAspectRatio="xMidYMid meet">
<metadata>
Created by potrace 1.16, written by Peter Selinger 2001-2019
</metadata>
<g transform="translate(0.000000,448.000000) scale(0.100000,-0.100000)"
fill="#000000" stroke="none">
<path d="M1965 3964 c-902 -111 -1649 -203 -1661 -205 -20 -4 -17 -32 183
-1654 111 -907 203 -1656 203 -1664 0 -10 12 -12 53 -7 222 24 3273 400 3277
403 2 2 -81 693 -184 1536 -189 1544 -220 1785 -227 1790 -2 2 -742 -88 -1644
-199z m1399 -399 c43 -335 106 -869 105 -890 0 -11 -15 21 -33 70 -124 339
-358 606 -672 764 -156 78 -283 117 -463 140 l-124 16 574 71 c570 70 574 70
581 50 4 -12 18 -111 32 -221z m-1634 26 c-236 -77 -474 -243 -633 -442 -165
-205 -268 -456 -299 -724 l-13 -110 -71 580 c-39 319 -71 581 -70 581 2 2
1129 142 1151 143 11 0 -18 -12 -65 -28z m651 -135 c352 -68 668 -307 829
-626 234 -467 138 -1019 -239 -1383 -175 -169 -378 -272 -621 -318 -105 -20
-318 -15 -436 9 -469 99 -825 460 -921 934 -23 114 -23 345 1 456 108 508 507
878 1016 941 96 12 273 6 371 -13z m1209 -1731 c38 -308 70 -571 70 -585 0
-26 -1 -26 -142 -43 -395 -49 -982 -117 -996 -117 -9 1 17 12 58 25 111 36
284 127 381 199 172 130 333 325 420 510 77 164 129 371 129 510 0 38 2 67 5
65 2 -3 36 -257 75 -564z m-2653 -34 c160 -318 447 -569 782 -682 112 -38 273
-69 369 -70 l77 -1 -55 -9 c-63 -11 -971 -125 -1072 -135 -52 -5 -68 -4 -68 6
0 10 -117 978 -135 1115 -4 29 3 16 25 -45 16 -47 51 -127 77 -179z"/>
<path d="M1967 3335 c-486 -93 -838 -494 -864 -986 -12 -227 45 -435 174 -637
52 -80 214 -241 301 -297 169 -108 385 -175 566 -175 562 1 1026 435 1063 995
11 172 -27 355 -107 520 -59 120 -123 207 -223 302 -143 136 -281 211 -492
268 -86 23 -319 29 -418 10z m642 -411 c34 -229 140 -1139 134 -1144 -8 -7
-276 -40 -319 -40 -19 0 -22 10 -39 148 -21 174 -40 301 -47 308 -5 4 -339
-34 -345 -39 -1 -2 11 -106 27 -232 15 -127 27 -231 26 -233 -2 -1 -54 -9
-117 -16 -222 -28 -229 -28 -229 -14 -1 7 -34 281 -74 608 -41 327 -71 598
-68 601 8 8 330 44 336 38 2 -2 16 -103 31 -224 15 -121 30 -223 34 -227 6 -6
341 28 348 36 2 2 -8 105 -23 230 -15 124 -25 228 -22 231 5 6 260 42 309 44
26 1 27 -2 38 -75z"/>
<path d="M4230 3590 l0 -30 85 0 85 0 0 -1160 0 -1160 -85 0 -85 0 0 -30 0
-30 310 0 310 0 0 30 0 30 -65 0 -65 0 0 635 0 635 215 0 215 0 0 -635 0 -635
-65 0 -65 0 0 -30 0 -30 305 0 305 0 0 30 0 30 -80 0 -80 0 0 1160 0 1160 80
0 80 0 0 30 0 30 -305 0 -305 0 0 -30 0 -30 65 0 65 0 0 -500 0 -500 -215 0
-215 0 0 500 0 500 65 0 65 0 0 30 0 30 -310 0 -310 0 0 -30z"/>
<path d="M8080 3590 l0 -30 80 0 80 0 0 -1160 0 -1160 -80 0 -80 0 0 -30 0
-30 280 0 280 0 0 30 c0 29 -1 30 -50 30 l-50 0 0 1190 0 1190 -230 0 -230 0
0 -30z"/>
<path d="M10160 3590 l0 -30 78 0 78 0 259 -1102 c142 -607 269 -1149 283
-1205 l24 -103 38 0 38 0 15 68 c8 37 61 279 118 539 57 260 106 467 110 460
3 -7 61 -249 130 -539 l124 -528 37 0 c35 0 38 3 47 38 5 20 116 522 246 1114
129 592 242 1099 251 1127 26 88 85 131 180 131 31 0 34 3 34 30 l0 30 -220 0
-220 0 0 -29 c0 -27 3 -29 49 -35 39 -5 55 -13 76 -38 43 -51 57 26 -211
-1193 -52 -236 -97 -438 -102 -448 -5 -12 -50 160 -132 505 -68 288 -125 539
-128 558 -4 40 77 419 108 502 31 83 78 118 161 118 37 0 39 2 39 30 l0 30
-755 0 -755 0 0 -30z m739 -67 c5 -21 67 -284 137 -586 l128 -547 -58 -268
c-32 -147 -59 -268 -61 -270 -1 -2 -17 59 -35 135 -61 262 -358 1518 -365
1546 l-7 27 126 0 125 0 10 -37z m426 23 c42 -18 55 -42 55 -103 0 -54 -49
-313 -59 -313 -7 0 -101 392 -101 418 0 17 62 16 105 -2z"/>
<path d="M13490 3590 l0 -30 80 0 80 0 0 -1160 0 -1160 -80 0 -80 0 0 -30 0
-30 225 0 225 0 0 51 0 52 48 -45 c59 -56 78 -66 142 -78 180 -34 353 100 453
352 113 281 111 728 -4 1004 -42 100 -117 212 -174 258 -73 61 -128 81 -220
81 -95 0 -138 -18 -202 -82 l-43 -42 0 444 0 445 -225 0 -225 0 0 -30z m745
-830 c19 -12 47 -42 61 -66 55 -94 57 -110 61 -628 5 -523 -1 -612 -44 -709
-28 -61 -77 -113 -119 -123 -14 -4 -46 -4 -70 -1 -61 6 -111 48 -152 127 l-33
63 3 596 c3 661 -1 616 71 697 64 74 147 90 222 44z"/>
<path d="M6127 2850 c-116 -30 -238 -125 -272 -212 -48 -127 26 -248 151 -248
42 0 59 5 84 26 86 73 80 195 -13 253 -43 27 -52 56 -25 83 52 52 173 65 242
25 77 -43 81 -59 84 -338 l3 -246 -43 -37 c-24 -21 -90 -69 -148 -108 -236
-161 -307 -227 -358 -335 -25 -53 -27 -68 -27 -178 0 -103 4 -129 24 -180 32
-80 108 -156 180 -180 76 -25 188 -17 257 18 48 24 124 96 124 117 0 22 17 8
28 -24 17 -47 79 -104 127 -117 51 -14 152 -6 192 15 67 34 112 122 113 219 0
54 -1 57 -24 57 -22 0 -25 -5 -31 -57 -9 -87 -26 -126 -59 -138 -24 -8 -31 -6
-47 14 -18 22 -19 49 -19 591 0 534 -1 571 -20 645 -36 139 -123 251 -239 307
-55 26 -79 31 -156 34 -49 2 -107 -1 -128 -6z m251 -1155 c-3 -276 -4 -292
-25 -331 -48 -89 -117 -123 -182 -89 -54 27 -65 71 -69 261 -4 186 7 294 37
352 22 42 76 96 171 172 l65 52 3 -64 c2 -35 2 -193 0 -353z"/>
<path d="M7412 2845 c-185 -52 -309 -212 -372 -479 -44 -186 -45 -509 -1 -717
72 -348 273 -527 547 -488 177 25 253 130 299 409 21 135 21 140 -14 140 -28
0 -30 -2 -36 -57 -33 -275 -117 -420 -250 -431 -149 -12 -243 97 -266 307 -6
60 -9 275 -7 562 5 514 5 519 71 615 48 70 104 97 184 90 140 -12 217 -99 119
-133 -70 -24 -106 -72 -106 -144 0 -109 122 -176 210 -116 63 42 75 69 75 165
0 70 -5 95 -22 127 -30 56 -89 110 -148 136 -65 29 -206 36 -283 14z"/>
<path d="M12740 2845 c-144 -41 -248 -159 -309 -350 -48 -152 -56 -218 -56
-485 0 -218 3 -257 23 -350 53 -241 154 -400 297 -466 108 -50 264 -50 364 1
51 25 119 94 146 146 31 59 65 172 80 264 20 124 20 125 -14 125 -28 0 -30 -3
-36 -47 -13 -95 -46 -217 -74 -277 -63 -131 -146 -192 -251 -184 -86 6 -133
43 -185 143 l-40 77 -3 259 -4 259 314 2 313 3 -3 110 c-13 408 -118 679 -295
756 -67 29 -189 35 -267 14z m194 -75 c64 -56 69 -88 74 -432 l4 -308 -167 0
-166 0 3 293 c3 276 5 295 26 349 32 80 87 128 147 128 35 0 51 -6 79 -30z"/>
<path d="M8860 2800 c0 -30 0 -30 59 -30 95 0 112 -36 57 -120 -17 -26 -334
-446 -396 -525 -5 -6 72 -206 170 -445 l179 -435 -55 -3 c-52 -3 -54 -4 -54
-32 l0 -30 285 0 285 0 0 30 0 30 -68 0 -68 0 -161 383 c-89 210 -191 451
-227 534 l-64 153 156 207 c87 114 172 218 191 230 25 17 49 23 87 23 53 0 54
0 54 30 l0 30 -215 0 -215 0 0 -30z"/>
<path d="M9470 2025 l0 -135 310 0 310 0 0 135 0 135 -310 0 -310 0 0 -135z"/>
</g>
</svg>
