<?xml version="1.0" standalone="no"?>
<!DOCTYPE svg PUBLIC "-//W3C//DTD SVG 20010904//EN"
 "http://www.w3.org/TR/2001/REC-SVG-20010904/DTD/svg10.dtd">
<svg version="1.0" xmlns="http://www.w3.org/2000/svg"
 width="1685.000000pt" height="440.000000pt" viewBox="0 0 1685.000000 440.000000"
 preserveAspectRatio="xMidYMid meet">
<metadata>
Created by potrace 1.16, written by Peter Selinger 2001-2019
</metadata>
<g transform="translate(0.000000,440.000000) scale(0.100000,-0.100000)"
fill="#000000" stroke="none">
<path d="M1815 3784 c-255 -59 -303 -75 -421 -139 -283 -154 -516 -397 -661
-690 -109 -220 -163 -445 -164 -692 0 -122 3 -143 55 -370 69 -298 113 -401
254 -592 291 -395 742 -630 1242 -646 l135 -4 250 58 c169 40 273 70 320 92
519 245 863 737 916 1311 15 167 8 235 -55 508 -46 197 -63 250 -102 330 -189
383 -525 675 -933 810 -64 21 -134 41 -156 45 -171 28 -224 33 -330 33 -110 0
-140 -5 -350 -54z m594 -169 c504 -98 914 -459 1067 -940 88 -278 89 -585 2
-850 -164 -502 -587 -867 -1103 -950 -117 -19 -325 -19 -445 0 -411 67 -789
335 -988 702 -109 202 -159 384 -169 613 -29 728 494 1345 1222 1439 99 12
315 5 414 -14z"/>
<path d="M2000 3473 c-144 -22 -266 -60 -385 -117 -456 -222 -740 -735 -685
-1237 33 -297 177 -581 399 -787 67 -62 225 -166 311 -205 347 -157 721 -153
1055 12 310 154 521 396 629 723 152 458 33 937 -315 1273 -186 179 -438 303
-684 335 -68 9 -275 11 -325 3z m597 -370 c15 -59 320 -1388 319 -1390 -2 -3
-399 -93 -401 -91 -1 2 -29 119 -61 261 -32 142 -61 262 -64 267 -8 13 -400
-81 -400 -96 0 -7 24 -118 54 -246 30 -128 56 -244 57 -258 4 -24 1 -25 -194
-71 -134 -31 -200 -43 -203 -35 -10 30 -322 1401 -319 1404 10 10 390 91 395
85 4 -5 33 -123 65 -263 32 -140 59 -258 61 -261 3 -5 392 79 403 88 2 1 -24
122 -58 269 -34 147 -60 268 -59 269 3 3 373 91 390 94 4 1 11 -11 15 -26z"/>
<path d="M4430 3765 l0 -35 95 0 95 0 0 -1355 0 -1355 -95 0 -95 0 0 -35 0
-35 360 0 360 0 0 35 0 35 -75 0 -75 0 0 740 0 740 250 0 250 0 0 -740 0 -740
-80 0 -80 0 0 -35 0 -35 365 0 365 0 0 35 0 35 -100 0 -100 0 0 1355 0 1355
100 0 100 0 0 35 0 35 -365 0 -365 0 0 -35 0 -35 80 0 80 0 0 -580 0 -580
-250 0 -250 0 0 580 0 580 75 0 75 0 0 35 0 35 -360 0 -360 0 0 -35z"/>
<path d="M8930 3765 l0 -35 95 0 95 0 0 -1355 0 -1355 -95 0 -95 0 0 -35 0
-35 325 0 325 0 0 35 0 35 -60 0 -60 0 0 1390 0 1390 -265 0 -265 0 0 -35z"/>
<path d="M11360 3765 l0 -34 92 -3 92 -3 331 -1408 330 -1408 44 3 44 3 138
629 c76 346 140 630 142 632 1 2 70 -281 153 -629 l150 -632 44 0 44 0 282
1285 c155 707 290 1312 299 1345 36 132 93 185 200 185 l55 0 0 35 0 35 -255
0 -255 0 0 -35 c0 -34 1 -35 43 -35 87 0 130 -47 129 -138 -1 -53 -83 -444
-334 -1582 l-62 -285 -37 155 c-20 85 -90 379 -154 652 l-118 497 57 256 c31
140 65 279 77 309 38 103 83 136 184 136 l55 0 0 35 0 35 -885 0 -885 0 0 -35z
m1014 -716 c157 -670 159 -683 148 -738 -33 -161 -126 -580 -128 -578 -1 1
-106 443 -233 982 -127 539 -234 988 -237 998 -5 16 6 17 143 17 l148 0 159
-681z m356 666 c38 -20 60 -63 60 -117 0 -38 -64 -375 -73 -384 -1 -2 -30 114
-63 256 l-61 260 54 0 c30 0 67 -7 83 -15z"/>
<path d="M15250 3765 l0 -35 95 0 95 0 0 -1355 0 -1355 -95 0 -95 0 0 -35 0
-35 265 0 265 0 0 62 0 62 53 -51 c68 -66 123 -93 206 -100 198 -17 370 123
486 394 78 180 110 389 102 658 -6 192 -23 308 -64 439 -50 160 -149 328 -236
399 -169 138 -381 133 -508 -12 l-39 -44 0 522 0 521 -265 0 -265 0 0 -35z
m857 -956 c78 -38 132 -139 152 -283 7 -47 11 -286 11 -615 0 -606 -5 -666
-63 -775 -55 -102 -129 -141 -233 -122 -50 10 -135 91 -165 159 l-24 52 -3
674 c-3 746 -3 738 61 823 18 24 54 58 81 76 58 39 118 43 183 11z"/>
<path d="M6694 2910 c-161 -24 -312 -126 -366 -248 -28 -62 -22 -165 11 -214
41 -59 85 -83 156 -83 75 0 125 29 155 91 42 86 20 173 -59 229 -41 30 -51 43
-51 65 0 37 36 65 108 86 108 32 212 -3 260 -86 l27 -45 3 -274 c3 -212 1
-280 -9 -299 -15 -27 -136 -120 -318 -242 -264 -178 -351 -310 -351 -530 0
-197 80 -340 228 -408 46 -21 70 -25 143 -24 138 1 240 51 304 149 l28 43 23
-50 c43 -94 119 -142 223 -142 86 -1 137 14 184 53 58 48 88 117 95 216 l5 83
-31 0 c-30 0 -30 -1 -37 -62 -10 -96 -23 -135 -52 -157 -32 -26 -35 -26 -64
-2 l-24 19 -6 694 c-4 606 -7 700 -22 748 -64 211 -219 359 -407 389 -72 12
-82 12 -156 1z m244 -1278 l-3 -408 -30 -59 c-39 -75 -91 -118 -142 -118 -57
0 -101 27 -124 76 -17 38 -19 68 -19 293 0 286 7 325 71 411 21 29 74 79 116
111 43 33 87 69 98 80 11 12 24 21 28 21 5 1 7 -183 5 -407z"/>
<path d="M8214 2910 c-302 -44 -490 -316 -535 -773 -14 -147 -6 -434 15 -562
57 -336 199 -556 404 -627 94 -32 261 -32 343 0 157 62 232 219 274 570 l6 53
-38 -3 -38 -3 -7 -68 c-35 -355 -171 -538 -368 -496 -98 21 -181 116 -217 249
-16 59 -18 121 -18 685 0 557 2 626 17 675 27 87 77 161 133 199 49 32 52 33
135 29 94 -5 157 -30 186 -73 25 -38 14 -57 -41 -78 -63 -23 -90 -49 -111
-103 -34 -89 -2 -174 81 -214 66 -32 123 -22 181 32 50 46 67 90 67 170 -2
177 -124 308 -313 338 -72 11 -82 11 -156 0z"/>
<path d="M14439 2909 c-221 -32 -369 -196 -444 -494 -84 -329 -69 -803 34
-1085 103 -280 298 -424 551 -407 239 16 381 186 435 521 8 50 15 106 15 124
0 30 -2 32 -34 32 l-34 0 -7 -67 c-17 -164 -78 -335 -153 -430 -101 -127 -269
-143 -376 -37 -102 102 -129 232 -124 594 l3 205 369 3 369 2 -7 138 c-30 574
-171 856 -451 902 -67 11 -67 11 -146 -1z m141 -80 c47 -27 84 -92 99 -173 7
-35 11 -193 11 -383 l0 -323 -195 0 -195 0 0 258 c0 287 10 405 41 488 48 128
148 184 239 133z"/>
<path d="M9840 2845 l0 -35 66 0 c83 0 104 -11 104 -54 0 -43 -20 -73 -290
-427 -118 -156 -214 -287 -212 -293 2 -6 93 -231 204 -501 110 -269 203 -496
205 -502 4 -10 -11 -13 -56 -13 l-61 0 0 -35 0 -35 330 0 330 0 0 35 0 34 -80
3 -81 3 -264 624 -264 623 187 246 c122 161 199 253 222 267 21 12 60 22 100
25 65 5 65 5 68 38 l3 32 -255 0 -256 0 0 -35z"/>
<path d="M10560 1935 l0 -155 360 0 360 0 0 155 0 155 -360 0 -360 0 0 -155z"/>
</g>
</svg>
