<?xml version="1.0" standalone="no"?>
<!DOCTYPE svg PUBLIC "-//W3C//DTD SVG 20010904//EN"
 "http://www.w3.org/TR/2001/REC-SVG-20010904/DTD/svg10.dtd">
<svg version="1.0" xmlns="http://www.w3.org/2000/svg"
 width="1495.000000pt" height="448.000000pt" viewBox="0 0 1495.000000 448.000000"
 preserveAspectRatio="xMidYMid meet">
<metadata>
Created by potrace 1.16, written by Peter Selinger 2001-2019
</metadata>
<g transform="translate(0.000000,448.000000) scale(0.100000,-0.100000)"
fill="#000000" stroke="none">
<path d="M0 2240 l0 -2240 7475 0 7475 0 0 2240 0 2240 -7475 0 -7475 0 0
-2240z m3630 1793 c39 -282 394 -3193 390 -3196 -4 -3 -3055 -379 -3277 -403
-41 -5 -53 -3 -53 7 0 8 -92 757 -203 1664 -200 1622 -203 1650 -183 1654 54
9 3301 407 3305 404 2 -1 12 -60 21 -130z m1220 -443 l0 -30 -65 0 -65 0 0
-500 0 -500 215 0 215 0 0 500 0 500 -65 0 -65 0 0 30 0 30 305 0 305 0 0 -30
0 -30 -80 0 -80 0 0 -1160 0 -1160 80 0 80 0 0 -30 0 -30 -305 0 -305 0 0 30
0 30 65 0 65 0 0 635 0 635 -215 0 -215 0 0 -635 0 -635 65 0 65 0 0 -30 0
-30 -310 0 -310 0 0 30 0 30 85 0 85 0 0 1160 0 1160 -85 0 -85 0 0 30 0 30
310 0 310 0 0 -30z m3690 -1160 l0 -1190 50 0 c49 0 50 -1 50 -30 l0 -30 -280
0 -280 0 0 30 0 30 80 0 80 0 0 1160 0 1160 -80 0 -80 0 0 30 0 30 230 0 230
0 0 -1190z m3130 1160 c0 -28 -2 -30 -39 -30 -83 0 -130 -35 -161 -118 -31
-83 -112 -462 -108 -502 3 -19 60 -270 128 -558 82 -345 127 -517 132 -505 7
16 74 316 263 1183 37 168 69 332 72 365 5 55 3 64 -22 93 -21 25 -37 33 -76
38 -46 6 -49 8 -49 35 l0 29 220 0 220 0 0 -30 c0 -27 -3 -30 -34 -30 -95 0
-154 -43 -180 -131 -9 -28 -122 -535 -251 -1127 -130 -592 -241 -1094 -246
-1114 -9 -35 -12 -38 -47 -38 l-37 0 -124 528 c-69 290 -127 532 -130 539 -4
7 -53 -200 -110 -460 -57 -260 -110 -502 -118 -539 l-15 -68 -38 0 -38 0 -24
103 c-14 56 -141 598 -283 1205 l-259 1102 -78 0 -78 0 0 30 0 30 755 0 755 0
0 -30z m2270 -415 l0 -444 43 42 c64 64 107 82 202 82 92 0 147 -20 220 -81
57 -46 132 -158 174 -258 115 -276 117 -723 4 -1004 -100 -252 -273 -386 -453
-352 -64 12 -83 22 -142 78 l-48 45 0 -52 0 -51 -225 0 -225 0 0 30 0 30 80 0
80 0 0 1160 0 1160 -80 0 -80 0 0 30 0 30 225 0 225 0 0 -445z m-7529 -353
c116 -56 203 -168 239 -307 19 -74 20 -111 20 -645 0 -542 1 -569 19 -591 16
-20 23 -22 47 -14 33 12 50 51 59 138 6 52 9 57 31 57 23 0 24 -3 24 -57 -1
-97 -46 -185 -113 -219 -40 -21 -141 -29 -192 -15 -48 13 -110 70 -127 117
-11 32 -28 46 -28 24 0 -21 -76 -93 -124 -117 -69 -35 -181 -43 -257 -18 -72
24 -148 100 -180 180 -20 51 -24 77 -24 180 0 110 2 125 27 178 51 108 122
174 358 335 58 39 124 87 148 108 l43 37 -3 246 c-3 279 -7 295 -84 338 -69
40 -190 27 -242 -25 -27 -27 -18 -56 25 -83 47 -29 73 -74 73 -127 0 -52 -19
-91 -60 -126 -62 -51 -167 -30 -223 46 -29 38 -34 117 -12 176 34 87 156 182
272 212 21 5 79 8 128 6 77 -3 101 -8 156 -34z m1284 9 c59 -26 118 -80 148
-136 17 -32 22 -57 22 -127 0 -96 -12 -123 -75 -165 -88 -60 -210 7 -210 116
0 72 36 120 106 144 98 34 21 121 -119 133 -80 7 -136 -20 -184 -90 -66 -96
-66 -101 -71 -615 -2 -287 1 -502 7 -562 23 -210 117 -319 266 -307 133 11
217 156 250 431 6 55 8 57 36 57 35 0 35 -5 14 -140 -46 -279 -122 -384 -299
-409 -274 -39 -475 140 -547 488 -44 208 -43 531 1 717 52 222 154 379 291
450 96 49 271 56 364 15z m5312 0 c177 -77 282 -348 295 -756 l3 -110 -313 -3
-314 -2 4 -259 3 -259 40 -77 c52 -100 99 -137 185 -143 105 -8 188 53 251
184 28 60 61 182 74 277 6 44 8 47 36 47 34 0 34 -1 14 -125 -15 -92 -49 -205
-80 -264 -69 -134 -220 -204 -389 -180 -214 30 -351 193 -418 499 -20 93 -23
132 -23 350 0 267 8 333 56 485 61 191 165 309 309 350 78 21 200 15 267 -14z
m-3717 -31 c0 -30 -1 -30 -54 -30 -38 0 -62 -6 -87 -23 -19 -12 -104 -116
-191 -230 l-156 -207 64 -153 c36 -83 138 -324 227 -534 l161 -383 68 0 68 0
0 -30 0 -30 -285 0 -285 0 0 30 c0 28 2 29 54 32 l55 3 -179 435 c-98 239
-175 439 -170 445 62 79 379 499 396 525 55 84 38 120 -57 120 -59 0 -59 0
-59 30 l0 30 215 0 215 0 0 -30z m800 -775 l0 -135 -310 0 -310 0 0 135 0 135
310 0 310 0 0 -135z"/>
<path d="M2751 3736 l-574 -71 124 -16 c533 -70 952 -403 1135 -904 18 -49 33
-81 33 -70 2 47 -126 1079 -137 1111 -7 20 -11 20 -581 -50z"/>
<path d="M1210 3548 c-311 -39 -566 -71 -566 -72 -1 0 31 -262 70 -581 l71
-580 13 110 c31 268 134 519 299 724 159 199 397 365 633 442 47 16 76 28 65
28 -11 -1 -274 -33 -585 -71z"/>
<path d="M2010 3469 c-509 -63 -908 -433 -1016 -941 -24 -111 -24 -342 -1
-456 83 -410 363 -740 753 -887 166 -62 437 -88 604 -56 243 46 446 149 621
318 377 364 473 916 239 1383 -161 319 -477 558 -829 626 -98 19 -275 25 -371
13z m375 -144 c211 -57 349 -132 492 -268 100 -95 164 -182 223 -302 223 -457
92 -994 -319 -1306 -73 -55 -212 -126 -309 -159 -80 -26 -235 -50 -328 -50
-181 0 -397 67 -566 175 -87 56 -249 217 -301 297 -224 351 -235 773 -30 1120
157 265 415 445 720 503 99 19 332 13 418 -10z"/>
<path d="M2406 2979 c-76 -10 -141 -21 -144 -24 -3 -3 7 -107 22 -231 15 -125
25 -228 23 -230 -7 -8 -342 -42 -348 -36 -4 4 -19 106 -34 227 -15 121 -29
222 -31 224 -6 6 -328 -30 -336 -38 -3 -3 27 -274 68 -601 40 -327 73 -601 74
-608 0 -14 7 -14 229 14 63 7 115 15 117 16 1 2 -11 106 -26 233 -16 126 -28
230 -27 232 6 5 340 43 345 39 7 -7 26 -134 47 -308 17 -138 20 -148 39 -148
43 0 311 33 319 40 6 5 -100 915 -134 1144 -13 89 8 83 -203 55z"/>
<path d="M3510 2224 c0 -139 -52 -346 -129 -510 -87 -185 -248 -380 -420 -510
-97 -72 -270 -163 -381 -199 -41 -13 -67 -24 -58 -25 14 0 601 68 996 117 141
17 142 17 142 43 0 38 -140 1143 -145 1149 -3 2 -5 -27 -5 -65z"/>
<path d="M835 1915 c18 -137 135 -1105 135 -1115 0 -10 16 -11 68 -6 101 10
1009 124 1072 135 l55 9 -77 1 c-42 0 -124 10 -181 21 -489 94 -881 435 -1047
910 -22 61 -29 74 -25 45z"/>
<path d="M10645 3533 c7 -28 304 -1284 365 -1546 18 -76 34 -137 35 -135 2 2
29 123 61 270 l58 268 -128 547 c-70 302 -132 565 -137 586 l-10 37 -125 0
-126 0 7 -27z"/>
<path d="M11220 3548 c0 -26 94 -418 101 -418 10 0 59 259 59 313 0 61 -13 85
-55 103 -43 18 -105 19 -105 2z"/>
<path d="M14085 2772 c-43 -20 -93 -72 -122 -125 -17 -29 -18 -80 -21 -628
l-3 -596 33 -63 c41 -79 91 -121 152 -127 24 -3 56 -3 70 1 42 10 91 62 119
123 43 97 49 186 44 709 -4 518 -6 534 -61 628 -47 81 -135 113 -211 78z"/>
<path d="M6310 2060 c-95 -76 -149 -130 -171 -172 -30 -58 -41 -166 -37 -352
4 -190 15 -234 69 -261 65 -34 134 0 182 89 21 39 22 55 25 331 2 160 2 318 0
353 l-3 64 -65 -52z"/>
<path d="M12770 2764 c-24 -22 -48 -57 -62 -92 -21 -54 -23 -73 -26 -349 l-3
-293 166 0 167 0 -4 308 c-5 344 -10 376 -74 432 -28 24 -44 30 -79 30 -37 0
-52 -6 -85 -36z"/>
</g>
</svg>
